<svg xmlns="http://www.w3.org/2000/svg" width="18.235" height="16.762" viewBox="0 0 18.235 16.762"><defs><style>.a{fill:none;stroke:#006cff;stroke-linecap:round;stroke-linejoin:round;stroke-width:1.5px;}</style></defs><g transform="translate(0.75 0.75)"><ellipse class="a" cx="1.673" cy="1.526" rx="1.673" ry="1.526" transform="translate(6.694 4.205)"/><path class="a" d="M17.235,9.149V7.114l-2.429-.369a5.3,5.3,0,0,0-.669-1.462l1.431-1.831L14,2.016l-2.008,1.3a6.433,6.433,0,0,0-1.6-.605L9.983.5H7.752l-.4,2.215a6.433,6.433,0,0,0-1.6.605l-2.008-1.3L2.162,3.451l1.43,1.831a5.3,5.3,0,0,0-.664,1.462L.5,7.114V9.149l2.429.369a5.3,5.3,0,0,0,.664,1.462l-1.43,1.831,1.573,1.435,2.008-1.3a6.43,6.43,0,0,0,1.6.61l.4,2.21H9.983l.4-2.215a6.43,6.43,0,0,0,1.6-.61L14,14.242l1.573-1.431-1.43-1.831a5.3,5.3,0,0,0,.669-1.462Z" transform="translate(-0.5 -0.5)"/><line class="a" y2="2.035" transform="translate(8.367 8.649)"/></g></svg>